<?xml version="1.0" encoding="utf-8"?>
<!-- Generator: Adobe Illustrator 24.0.0, SVG Export Plug-In . SVG Version: 6.00 Build 0)  -->
<svg version="1.1" id="Layer_1" xmlns="http://www.w3.org/2000/svg" xmlns:xlink="http://www.w3.org/1999/xlink" x="0px" y="0px"
	 viewBox="0 0 180 49" style="enable-background:new 0 0 180 49;" xml:space="preserve">
<style type="text/css">
	.st0{fill:#FFFFFF;}
</style>
<g>
	<path class="st0" d="M20.3,48.8c-5.1,0-13-2-18.1-5.9L1,42l6.2-9.4l1.3,0.7c0.1,0,6.4,3.6,11.7,3.6c1.6,0,2.9-0.4,3.5-1
		c0.6-0.6,0.7-1.4,0.7-1.9c0-1.4-1.3-2.3-2.4-2.7c-0.7-0.3-2-0.7-3.3-1.1c-5.3-1.7-12.5-4-14.7-8.2c-0.4-0.8-0.1-1.7,0.6-2.1
		c0.8-0.4,1.7-0.1,2.1,0.6c1.7,3.1,8.7,5.4,12.9,6.7c1.5,0.5,2.7,0.9,3.6,1.2c3.7,1.6,4.3,4.1,4.3,5.5c0,1.7-0.5,3.1-1.6,4.1
		c-1.3,1.3-3.2,1.9-5.7,1.9c-4.7,0-9.7-2.2-12-3.4l-3,4.5c4.5,2.9,10.9,4.5,15.1,4.5c2,0,5.4-0.5,8.2-2.1c3.5-1.9,5.4-5,5.5-9
		c0.2-8.8-5.5-10.7-16.6-13.7c-0.8-0.2-1.7-0.5-2.6-0.7c-4.8-1.3-7.9-3.4-9.3-6.3c-1.3-2.7-0.6-5.2-0.1-6.4
		c0.7-1.7,3.8-7.3,13.9-7.3c9,0,15,4.9,15.3,5.1l1.1,0.9l-5.9,9.3l-1.3-0.8c-4.6-2.8-7.7-3.3-9.5-3.2c-1.8,0.1-2.7,0.8-2.7,0.8l0,0
		L14.1,10c0.2-0.2,4.7-4.3,14.6,1.3l2.8-4.4c-2-1.3-6.5-3.6-12.2-3.6c-8.2,0-10.6,4.1-11.1,5.4c-0.3,0.8-0.7,2.3,0,3.9
		c1,2,3.5,3.6,7.4,4.6c0.9,0.2,1.7,0.5,2.6,0.7c10.3,2.8,19.2,5.2,18.8,16.8C36.7,45.8,25.9,48.8,20.3,48.8z"/>
	<path class="st0" d="M127.7,48.4H98.8c-0.9,0-1.5-0.7-1.5-1.5c0-0.9,0.7-1.5,1.5-1.5h25.8v-6.1H97.3V1.3h12.2l0,28.4
		c0,0.9-0.7,1.5-1.5,1.5c0,0,0,0,0,0c-0.9,0-1.5-0.7-1.5-1.5l0-25.3h-6.1v31.7h27.3V48.4z"/>
	<path class="st0" d="M44,48.4c-0.2,0-0.3,0-0.5-0.1c-0.8-0.3-1.2-1.2-1-2l6-17.4h9.8l6.5-19.5L72.2,32H60.6l-2,6.1h15.7l2.7,7.2
		h6.5L69.3,4.4h-9l-6.4,18.4c-0.3,0.8-1.2,1.2-2,1c-0.8-0.3-1.2-1.2-1-2l7.1-20.5h13.3l16.3,47.1H74.9l-2.7-7.2H54.3l3-9.2h-6.6
		l-5.3,15.3C45.2,48,44.6,48.4,44,48.4z M61.6,28.9H68l-3.2-9.7L61.6,28.9z"/>
	<path class="st0" d="M135.7,48.4c-0.2,0-0.3,0-0.5-0.1c-0.8-0.3-1.2-1.2-1-2l6-17.4h9.8l6.5-19.5L164,32h-11.7l-2,6.1H166l2.7,7.2
		h6.5L161.1,4.4h-9l-6.4,18.4c-0.3,0.8-1.2,1.2-2,1s-1.2-1.2-1-2l7.1-20.5h13.3l16.3,47.1h-12.9l-2.7-7.2H146l3-9.2h-6.6l-5.3,15.3
		C137,48,136.4,48.4,135.7,48.4z M153.4,28.9h6.4l-3.2-9.7L153.4,28.9z"/>
</g>
</svg>
